<svg xmlns="http://www.w3.org/2000/svg" width="154" height="154" viewBox="0 0 154 154">
  <defs>
    <style>
      .cls-1 {
        fill: #fff;
        fill-rule: evenodd;
      }
    </style>
  </defs>
  <path id="Color_Fill_1" data-name="Color Fill 1" class="cls-1" d="M89,54c-5.5-1.625-27.854-10.2-39-17-8.921-5.442-17.766-14.52-28-18v4c2.121,3.165,1.883,7.86,4,11,5.379,7.976,16.932,13.49,24,20-0.631,1.754-.193.971-1,2-1.12,2.873-.174,1.842-3,3-1.073.752-.946,0.6-3,1-4.212-4.314-13.2-10.946-19-13v7c3.092,4.188,2.914,9.878,7,13,6.81,5.2,20.575,5.42,21,17l-3,1c-5.335,3.147-17.8-6.4-22-9v6c0.649,0.86,1.338,3.144,2,4,2.944,8.513,14.294,12.971,21,18,13.707,10.28,19.536,29.535,37,36,21.57,7.985,41.583-7.5,44-23,1-6.417.667-8.25-2-14-4.5-9.083-22.083-15.667-31-10-4.25,3-4.833,4.333-6,7s-1.333,7.333,0,10,4.419,3.882,9,5v-2c-2.022-1.737-1.868-2.145-2-6,5.675-3.662,18.8-2.87,14,10-1.252,3.353-5.5,4.8-8,7-13.423.321-15.009-3.929-22-9-0.66-4.143-3.357-7.689-2-13,2.86-11.19,15.271-25.621,33-21,17.962,4.681,36.91,27.327,23,50-15.936,25.977-53.766,25.425-74,4-6.861-7.265-10.955-16.943-19-23-7.364-5.544-17.894-10.354-23-18-4.852-7.266-3.69-18.39-2-27-7.189-18.271-6.488-44.009-6-67C35.164,12.351,54.4,29.279,79,40c7.509,3.273,23.75,6.5,22,12S94.5,55.625,89,54Z"/>
</svg>
